<svg xmlns="http://www.w3.org/2000/svg" version="1.1" style="display:block" viewBox="0 0 2048 2048" width="1024" height="1024" preserveAspectRatio="none">
<rect width="2048" height="2048" fill="#0C1013"/>
<path fill="#1C5449" d="M 545.041 835.495 L 577.682 835.338 C 554.957 871.569 533.664 910.792 511.455 947.731 C 500.846 967.693 484.008 991.227 475.717 1011.96 C 467.682 1032.05 497.61 1073.82 507.716 1091.13 L 577.725 1211.28 C 555.11 1211.77 530.516 1211.25 507.75 1211.21 C 486.679 1211.47 472.03 1206.27 461.029 1187.01 C 438.054 1146.72 415.649 1106.38 391.974 1066.45 C 385.789 1056.02 374.718 1038.7 373.666 1026.34 C 373.211 1020.99 375.797 1008.01 378.109 1003.67 C 388.107 984.897 399.83 966.011 410.539 947.64 C 420.818 930.04 430.967 912.365 440.985 894.616 C 477.531 830.24 471.68 835.45 545.041 835.495 z"/>
<path fill="#56D4BC" d="M 632.098 835.296 C 645.565 834.308 658.659 838.171 668.206 848.075 C 678.175 858.437 682.328 873.083 679.282 887.135 C 673.603 914.022 627.847 971.71 615.212 1000.36 C 602.275 1029.7 611.458 1039.56 625.632 1063.64 L 658.269 1118.27 C 667.327 1133.38 681.168 1152.21 680.652 1170.27 C 680.283 1181.99 675.185 1193.07 666.519 1200.97 C 656.061 1210.67 644.621 1212.28 631.146 1211.83 C 619.476 1209.81 606.155 1202.55 600.045 1192.11 C 570.93 1142.35 541.68 1092.4 512.675 1042.59 C 499.761 1020.41 516.091 996.67 527.482 977.41 L 551.836 936.152 C 567.59 909.462 583.264 881.978 599.44 855.565 C 606.634 843.816 618.73 837.746 632.098 835.296 z"/>
<path fill="#56D4BC" d="M 822.796 919.404 C 859.92 915.115 889.692 929.973 915.479 955.235 C 906.105 964.247 893.816 979.035 884.991 989.088 C 874.232 978.342 862.561 968.817 847.603 964.767 C 833.485 960.854 818.385 962.793 805.713 970.146 C 792.166 978.053 782.396 991.105 778.626 1006.33 C 774.707 1022.45 777.338 1039.46 785.941 1053.63 C 793.53 1066.13 805.894 1074.98 820.167 1078.14 C 837.769 1081.99 855.869 1076.83 869.933 1066 C 874.229 1062.69 879.836 1057.24 884.041 1054.57 L 889.335 1059.71 C 897.787 1068.22 906.814 1076.79 915.427 1085.19 C 910.225 1090.28 905.08 1095.24 899.512 1099.93 C 861.312 1132.13 800.621 1133.4 761.883 1101.19 C 740.86 1083.67 727.759 1058.45 725.528 1031.18 C 719.937 969.425 762.721 925.159 822.796 919.404 z"/>
<path fill="#56D4BC" fill-rule="evenodd" d="M 998.663 962.514 C 1043.81 957.102 1084.83 989.23 1090.39 1034.36 C 1095.95 1079.49 1063.95 1120.61 1018.84 1126.32 C 973.524 1132.05 932.169 1099.88 926.584 1054.54 C 920.998 1009.2 953.307 967.951 998.663 962.514 z M 1007.37 1005.31 C 1048.94 1004.71 1060.58 1072.42 1012.5 1083.25 C 962.636 1083.1 959.242 1012.56 1007.37 1005.31 z"/>
<path fill="#56D4BC" d="M 1209.77 965.37 C 1247.8 961.219 1270.3 985.425 1271.04 1022.26 C 1271.27 1033.7 1271.22 1045.17 1271.21 1056.63 L 1271.07 1121.23 L 1222.78 1121.16 C 1222.5 1093.2 1223.62 1065.12 1222.6 1037.19 C 1221.47 1006.17 1188.57 997.326 1170.72 1022.06 C 1160.82 1042.11 1167.93 1094.88 1165.43 1121.14 L 1116.97 1121.14 L 1116.92 967.553 L 1164.15 967.72 L 1165.06 991.141 C 1166.36 989.037 1167.78 987.014 1169.33 985.085 C 1179.96 971.572 1193.68 967.374 1209.77 965.37 z"/>
<path fill="#56D4BC" d="M 1425.46 926.93 L 1474.09 926.878 L 1474.16 969.86 C 1486.66 969.692 1499.17 969.609 1511.67 969.609 C 1511.92 981.371 1511.78 993.701 1511.81 1005.51 L 1473.97 1005.26 C 1474.07 1023.05 1471.52 1057.31 1475.99 1074.28 C 1479.62 1088.1 1498.35 1082.62 1508.99 1077.78 C 1511.04 1086.3 1513.25 1094.79 1515.61 1103.23 L 1518.35 1113.44 C 1494.25 1125.09 1460.92 1131.69 1438.69 1111.38 C 1421.8 1095.97 1425.24 1067.03 1425.32 1045.99 L 1425.24 1006.08 L 1404 1006.1 L 1404.23 969.493 L 1425.39 969.431 L 1425.46 926.93 z"/>
<path fill="#56D4BC" d="M 1309.3 926.919 L 1357.94 926.887 L 1357.97 969.8 L 1395.17 969.709 C 1395.25 981.525 1395.44 993.341 1395.74 1005.15 L 1357.7 1005.12 C 1357.88 1026.85 1355.43 1053.26 1359.35 1073.98 C 1362.1 1088.54 1383.79 1081.43 1392.03 1078.13 L 1399.14 1105.79 L 1401.07 1113.3 C 1377.71 1124.99 1344.44 1131.41 1322.6 1111.75 C 1306.38 1097.16 1308.97 1070.87 1309 1051.12 C 1309.02 1036.38 1309.1 1021.12 1309.1 1006.12 L 1287.92 1006.42 L 1287.99 969.76 L 1309.24 969.791 C 1309.13 955.501 1309.15 941.209 1309.3 926.919 z"/>
<path fill="#56D4BC" fill-rule="evenodd" d="M 1599.27 965.417 C 1618.31 964.102 1642.58 967.416 1656.84 981.288 C 1677.97 1001.85 1673.37 1036.96 1673.3 1064.09 L 1673.34 1121.03 L 1626.63 1121.01 C 1626.53 1115.38 1626.21 1109.49 1625.98 1103.84 C 1611.65 1119.08 1598.83 1124.65 1577.64 1124.34 C 1561.88 1124.11 1548.29 1119.09 1537.22 1107.38 C 1531.17 1100.05 1527.37 1091.12 1526.29 1081.67 C 1524.94 1069.95 1528.35 1056.42 1536.06 1047.7 C 1556.3 1024.84 1593.08 1030.41 1620.28 1029.48 C 1623.09 1029.38 1623.84 1028.34 1625.21 1026.33 C 1625.87 1017.54 1620.23 1007.23 1611.21 1004.86 C 1589.81 999.246 1568.51 1005.31 1549.36 1015.06 C 1545.1 1004.48 1541 991.753 1537.22 980.808 C 1557.57 970.881 1576.93 966.987 1599.27 965.417 z M 1567 1088 A 21 21 0 1 0 1609 1088 A 21 21 0 1 0 1567 1088 z"/>
</svg>