<svg xmlns="http://www.w3.org/2000/svg" viewBox="307 804 440 440" width="512" height="512">
  <path fill="#1C5449" d="M 545.041 835.495 L 577.682 835.338 C 554.957 871.569 533.664 910.792 511.455 947.731 C 500.846 967.693 484.008 991.227 475.717 1011.96 C 467.682 1032.05 497.61 1073.82 507.716 1091.13 L 577.725 1211.28 C 555.11 1211.77 530.516 1211.25 507.75 1211.21 C 486.679 1211.47 472.03 1206.27 461.029 1187.01 C 438.054 1146.72 415.649 1106.38 391.974 1066.45 C 385.789 1056.02 374.718 1038.7 373.666 1026.34 C 373.211 1020.99 375.797 1008.01 378.109 1003.67 C 388.107 984.897 399.83 966.011 410.539 947.64 C 420.818 930.04 430.967 912.365 440.985 894.616 C 477.531 830.24 471.68 835.45 545.041 835.495 z"/>
  <path fill="#56D4BC" d="M 632.098 835.296 C 645.565 834.308 658.659 838.171 668.206 848.075 C 678.175 858.437 682.328 873.083 679.282 887.135 C 673.603 914.022 627.847 971.71 615.212 1000.36 C 602.275 1029.7 611.458 1039.56 625.632 1063.64 L 658.269 1118.27 C 667.327 1133.38 681.168 1152.21 680.652 1170.27 C 680.283 1181.99 675.185 1193.07 666.519 1200.97 C 656.061 1210.67 644.621 1212.28 631.146 1211.83 C 619.476 1209.81 606.155 1202.55 600.045 1192.11 C 570.93 1142.35 541.68 1092.4 512.675 1042.59 C 499.761 1020.41 516.091 996.67 527.482 977.41 L 551.836 936.152 C 567.59 909.462 583.264 881.978 599.44 855.565 C 606.634 843.816 618.73 837.746 632.098 835.296 z"/>
</svg>